{"title":"Nicky Ricky Dicky and Dawn S02E06 HDTV EN-SUB x264-W4F","uid":12069278,"size":278802761,"categoryP":"video","categoryS":"tv_shows","magnet":"?xt=urn:btih:c57c6cb6eb8367bdf75fe166a612d9de02ac97b1&amp;dn=Nicky+Ricky+Dicky+and+Dawn+S02E06+HDTV+EN-SUB+x264-W4F&amp;tr=udp%3A%2F%2Ftracker.openbittorrent.com%3A80&amp;tr=udp%3A%2F%2Fopen.demonii.com%3A1337&amp;tr=udp%3A%2F%2Ftracker.coppersurfer.tk%3A6969&amp;tr=udp%3A%2F%2Fexodus.desync.com%3A6969","seeders":0,"leechers":0,"uploader":"Mulva1989","files":2,"time":1435472114,"description":"Nicky Ricky Dicky and Dawn S02E06 HDTV EN-SUB x264-W4F\n\nThe quads are able to get their parents to agree that they are responsible enough to take a look around the mall on their own.\n\nScreens @ &lt;a href=&quot;\nhttps://yuq.me/users/50/321/Pq2p3iLoKZ.jpg&quot; rel=&quot;nofollow&quot; target=&quot;_NEW&quot;&gt;\nhttps://yuq.me/users/50/321/Pq2p3iLoKZ.jpg&lt;/a&gt; &lt;a href=&quot;\nhttps://yuq.me/users/50/321/xHZcM6K7Na.jpg&quot; rel=&quot;nofollow&quot; target=&quot;_NEW&quot;&gt;\nhttps://yuq.me/users/50/321/xHZcM6K7Na.jpg&lt;/a&gt;\n\nFormat : MPEG-4\nFormat profile : Base Media\nCodec ID : isom\nFile size : 266 MiB\nDuration : 22mn 2s\nOverall bit rate mode : Variable\nOverall bit rate : 1 687 Kbps\nEncoded date : UTC 2015-06-28 02:43:59\nTagged date : UTC 2015-06-28 02:43:59\n\nVideo\nID : 1\nFormat : AVC\nFormat/Info : Advanced Video Codec\nFormat profile : &lt;a class=&quot;__cf_email__&quot; href=&quot;/cdn-cgi/l/email-protection&quot; data-cfemail=&quot;1951707e7159552a3728&quot;&gt;[email&amp;#160;protected]&lt;/a&gt;&lt;script data-cfhash='f9e31' type=&quot;text/javascript&quot;&gt;\n/* &lt;![CDATA[ */!function(){try{var t=&quot;currentScript&quot;in document?document.currentScript:function(){for(var t=document.getElementsByTagName(&quot;script&quot;),e=t.length;e--;)if(t[e].getAttribute(&quot;data-cfhash&quot;))return t[e]}();if(t&amp;&amp;t.previousSibling){var e,r,n,i,c=t.previousSibling,a=c.getAttribute(&quot;data-cfemail&quot;);if(a){for(e=&quot;&quot;,r=parseInt(a.substr(0,2),16),n=2;a.length-n;n+=2)i=parseInt(a.substr(n,2),16)^r,e+=String.fromCharCode(i);e=document.createTextNode(e),c.parentNode.replaceChild(e,c)}t.parentNode.removeChild(t);}}catch(u){}}()/* ]]&gt; */&lt;/script&gt;\nFormat settings, CABAC : Yes\nFormat settings, ReFrames : 5 frames\nCodec ID : avc1\nCodec ID/Info : Advanced Video Coding\nDuration : 22mn 0s\nBit rate : 1 563 Kbps\nMaximum bit rate : 3 613 Kbps\nWidth : 720 pixels\nHeight : 404 pixels\nDisplay aspect ratio : 16:9\nFrame rate mode : Constant\nFrame rate : 23.976 fps\nColor space : YUV\nChroma subsampling : 4:2:0\nBit depth : 8 bits\nScan type : Progressive\nBits/(Pixel*Frame) : 0.224\nStream size : 246 MiB (93%)\nWriting library : x264 core 146 r2538 121396c\nEncoding settings : cabac=1 / ref=5 / deblock=1:0:0 / analyse=0x3:0x113 / me=umh / subme=8 / psy=1 / psy_rd=1.00:0.00 / mixed_ref=1 / me_range=16 / chroma_me=1 / trellis=1 / 8x8dct=1 / cqm=0 / deadzone=21,11 / fast_pskip=1 / chroma_qp_offset=-2 / threads=12 / lookahead_threads=2 / sliced_threads=0 / nr=0 / decimate=1 / interlaced=0 / bluray_compat=0 / constrained_intra=0 / bframes=3 / b_pyramid=2 / b_adapt=2 / b_bias=0 / direct=3 / weightb=1 / open_gop=0 / weightp=2 / keyint=250 / keyint_min=25 / scenecut=40 / intra_refresh=0 / rc_lookahead=50 / rc=crf / mbtree=1 / crf=20.0 / qcomp=0.60 / qpmin=0 / qpmax=69 / qpstep=4 / ip_ratio=1.40 / aq=1:1.00\nEncoded date : UTC 2015-06-28 02:43:59\nTagged date : UTC 2015-06-28 02:44:06\nMatrix coefficients : BT.709\nColor range : Limited\n\nAudio\nID : 2\nFormat : AAC\nFormat/Info : Advanced Audio Codec\nFormat profile : LC\nCodec ID : 40\nDuration : 22mn 0s\nBit rate mode : Variable\nBit rate : 121 Kbps\nMaximum bit rate : 151 Kbps\nChannel(s) : 2 channels\nChannel positions : Front: L R\nSampling rate : 48.0 KHz\nCompression mode : Lossy\nStream size : 19.1 MiB (7%)\nLanguage : English\nEncoded date : UTC 2015-06-28 02:44:05\nTagged date : UTC 2015-06-28 02:44:06\n\nText\nID : 3\nFormat : Timed Text\nCodec ID : tx3g\nDuration : 22mn 2s\nBit rate mode : Variable\nBit rate : 140 bps\nStream size : 22.6 KiB (0%)\nLanguage : English\nEncoded date : UTC 2015-06-28 02:44:06\nTagged date : UTC 2015-06-28 02:44:06","torrent":{"xt":"urn:btih:c57c6cb6eb8367bdf75fe166a612d9de02ac97b1","amp;dn":"Nicky+Ricky+Dicky+and+Dawn+S02E06+HDTV+EN-SUB+x264-W4F","amp;tr":["udp%3A%2F%2Ftracker.openbittorrent.com%3A80","udp%3A%2F%2Fopen.demonii.com%3A1337","udp%3A%2F%2Ftracker.coppersurfer.tk%3A6969","udp%3A%2F%2Fexodus.desync.com%3A6969"],"infoHash":"c57c6cb6eb8367bdf75fe166a612d9de02ac97b1","infoHashBuffer":{"type":"Buffer","data":[197,124,108,182,235,131,103,189,247,95,225,102,166,18,217,222,2,172,151,177]},"announce":[],"urlList":[]}}